# xmcd
#
# Track frame offsets: 
#        150
#        16626
#        35539
#        54481
#        74759
#        91495
#        111952
#        134135
#        152942
#        173575
#        190150
#        208712
#
# Disc length: 2997 seconds
#
# Revision: 0
# Processed by: cddbd v1.5.2PL0 Copyright (c) Steve Scherf et al.
# Submitted via: ExactAudioCopy v0.99pb4
#
DISCID=ab0bb30c
DTITLE=Tommy Castro - Hard Believer
DYEAR=2009
DGENRE=Blues
TTITLE0=Definition of Insanity
TTITLE1=It Is What It Is
TTITLE2=Hard Believer
TTITLE3=Monkey's Paradise
TTITLE4=Ninety-Nine And One Half
TTITLE5=Backup Plan
TTITLE6=Gotta Serve Somebody
TTITLE7=Trimmin' Fat
TTITLE8=Make It Back To Memphis
TTITLE9=Victims Of The Darkness
TTITLE10=My Babe
TTITLE11=The Trouble With Soul
EXTD=
EXTT0=
EXTT1=
EXTT2=
EXTT3=
EXTT4=
EXTT5=
EXTT6=
EXTT7=
EXTT8=
EXTT9=
EXTT10=
EXTT11=
PLAYORDER=
